<mxfile host="65bd71144e">
    <diagram id="EeIxQevb6JCqR3fCEVeo" name="Page-1">
        <mxGraphModel dx="3680" dy="1109" grid="1" gridSize="10" guides="1" tooltips="1" connect="1" arrows="1" fold="1" page="1" pageScale="1" pageWidth="850" pageHeight="1100" math="0" shadow="0">
            <root>
                <mxCell id="0"/>
                <mxCell id="1" parent="0"/>
                <mxCell id="39" value="Here's a basic Draw.io floor plan code to get you started. This example includes a simple room layout with a few furniture items.&#13;&#10;&#13;&#10;```drawio&#13;&#10;&lt;mxGraphModel dx=&quot;1050&quot; dy=&quot;720&quot; grid=&quot;1&quot; gridSize=&quot;10&quot; guides=&quot;1&quot; tooltips=&quot;1&quot; connect=&quot;arrows&quot; arrows=&quot;1&quot; fold=&quot;1&quot; page=&quot;1&quot; pageScale=&quot;1&quot; pageWidth=&quot;827&quot; pageHeight=&quot;1169&quot; math=&quot;0&quot; shadow=&quot;0&quot;&gt;&#13;&#10;  &lt;root&gt;&#13;&#10;    &lt;mxCell id=&quot;0&quot; /&gt;&#13;&#10;    &lt;mxCell id=&quot;1&quot; parent=&quot;0&quot; /&gt;&#13;&#10;    &lt;mxCell id=&quot;2&quot; style=&quot;shape=rectangle;fillColor=#cccccc;strokeColor=#000000;strokeWidth=2;&quot; parent=&quot;1&quot; vertex=&quot;1&quot;&gt;&#13;&#10;      &lt;mxGeometry x=&quot;20&quot; y=&quot;20&quot; width=&quot;200&quot; height=&quot;150&quot; as=&quot;geometry&quot; /&gt;&#13;&#10;    &lt;/mxCell&gt;&#13;&#10;    &lt;mxCell id=&quot;3&quot; style=&quot;shape=rectangle;fillColor=#cccccc;strokeColor=#000000;strokeWidth=2;&quot; parent=&quot;1&quot; vertex=&quot;1&quot;&gt;&#13;&#10;      &lt;mxGeometry x=&quot;250&quot; y=&quot;20&quot; width=&quot;200&quot; height=&quot;150&quot; as=&quot;geometry&quot; /&gt;&#13;&#10;    &lt;/mxCell&gt;&#13;&#10;    &lt;mxCell id=&quot;4&quot; style=&quot;shape=ellipse;fillColor=#cccccc;strokeColor=#000000;strokeWidth=2;&quot; parent=&quot;1&quot; vertex=&quot;1&quot;&gt;&#13;&#10;      &lt;mxGeometry x=&quot;120&quot; y=&quot;200&quot; width=&quot;50&quot; height=&quot;50&quot; as=&quot;geometry&quot; /&gt;&#13;&#10;    &lt;/mxCell&gt;&#13;&#10;    &lt;mxCell id=&quot;5&quot; style=&quot;shape=ellipse;fillColor=#cccccc;strokeColor=#000000;strokeWidth=2;&quot; parent=&quot;1&quot; vertex=&quot;1&quot;&gt;&#13;&#10;      &lt;mxGeometry x=&quot;350&quot; y=&quot;200&quot; width=&quot;50&quot; height=&quot;50&quot; as=&quot;geometry&quot; /&gt;&#13;&#10;    &lt;/mxCell&gt;&#13;&#10;    &lt;mxCell id=&quot;6&quot; style=&quot;shape=rectangle;fillColor=#cccccc;strokeColor=#000000;strokeWidth=2;&quot; parent=&quot;1&quot; vertex=&quot;1&quot;&gt;&#13;&#10;      &lt;mxGeometry x=&quot;20&quot; y=&quot;300&quot; width=&quot;100&quot; height=&quot;50&quot; as=&quot;geometry&quot; /&gt;&#13;&#10;    &lt;/mxCell&gt;&#13;&#10;    &lt;mxCell id=&quot;7&quot; style=&quot;shape=rectangle;fillColor=#cccccc;strokeColor=#000000;strokeWidth=2;&quot; parent=&quot;1&quot; vertex=&quot;1&quot;&gt;&#13;&#10;      &lt;mxGeometry x=&quot;250&quot; y=&quot;300&quot; width=&quot;100&quot; height=&quot;50&quot; as=&quot;geometry&quot; /&gt;&#13;&#10;    &lt;/mxCell&gt;&#13;&#10;  &lt;/root&gt;&#13;&#10;&lt;/mxGraphModel&gt;&#13;&#10;```&#13;&#10;&#13;&#10;This code creates a simple floor plan with two rooms, two doors, and two pieces of furniture. You can copy and paste this code into Draw.io to view and edit the floor plan.&#13;&#10;&#13;&#10;Here's a brief explanation of the code:&#13;&#10;&#13;&#10;* The `mxGraphModel` element defines the overall graph model.&#13;&#10;* The `root` element contains all the cells in the graph.&#13;&#10;* The `mxCell` elements define individual cells, such as rooms, doors, and furniture.&#13;&#10;* The `style` attribute defines the appearance of each cell, including its shape, fill color, stroke color, and stroke width.&#13;&#10;* The `parent` attribute specifies the parent cell of each cell.&#13;&#10;* The `vertex` attribute specifies whether a cell is a vertex (i.e., a node) or an edge.&#13;&#10;* The `mxGeometry` element defines the position and size of each cell.&#13;&#10;&#13;&#10;You can modify this code to create your own custom floor plan by adding or removing cells, changing their styles and positions, and adjusting their sizes." style="text;whiteSpace=wrap;html=1;" vertex="1" parent="1">
                    <mxGeometry x="-940" y="10" width="560" height="690" as="geometry"/>
                </mxCell>
            </root>
        </mxGraphModel>
    </diagram>
</mxfile>